<?xml version="1.0" encoding="UTF-8"?>
<svg width="129px" height="22px" viewBox="0 0 129 22" version="1.1" 
    xmlns="http://www.w3.org/2000/svg" 
    xmlns:xlink="http://www.w3.org/1999/xlink">
    <!-- Generator: sketchtool 63.1 (101010) - https://sketch.com -->
    <title>0B747AB9-9E3F-4BEC-9C98-FA7007DF5679</title>
    <desc>Created with sketchtool.</desc>
    <g id="Page-1" stroke="none" stroke-width="1" fill="none" fill-rule="evenodd">
        <g id="Services" transform="translate(-72.000000, -52.000000)" fill="#ffffff" fill-rule="nonzero">
            <g id="Header" transform="translate(0.000000, -0.000000)">
                <g id="Navigation" transform="translate(72.000000, 52.000000)">
                    <g id="PM-logo-white">
                        <g>
                            <path d="M0.0594228424,21.8418182 L0.0594228424,5.50909091 L3.41856117,5.50909091 L3.41856117,6.72727273 C3.89743937,5.96545455 5.13308495,5.22909091 6.754979,5.22909091 C10.0459558,5.22909091 12.0331256,7.84363636 12.0331256,11.3854545 C12.0331256,15 9.79428262,17.5909091 6.61516055,17.5909091 C5.15230999,17.5909091 4.05473513,17.0690909 3.5286682,16.4018182 L3.5286682,21.8472727 L0.0594228424,21.8418182 Z M6.04714808,8.48 C4.69790001,8.48 3.49546132,9.43090909 3.49546132,11.4054545 C3.49546132,13.38 4.69790001,14.3527273 6.04714808,14.3527273 C7.39639615,14.3527273 8.62854627,13.3781818 8.62854627,11.4054545 C8.62854627,9.43272727 7.41736892,8.48 6.04714808,8.48 Z" id="Shape"></path>
                            <path d="M25.5168676,11.4054545 C25.5168676,15.0654545 22.8952716,17.6818182 19.4837014,17.6818182 C16.0721311,17.6818182 13.4575261,15.0654545 13.4575261,11.4054545 C13.4575261,7.74545455 16.1088335,5.15272727 19.4906923,5.15272727 C22.8725511,5.15272727 25.5168676,7.74363636 25.5168676,11.4054545 Z M22.0423791,11.4054545 C22.0423791,9.40545455 20.8084812,8.48 19.4837014,8.48 C18.1589216,8.48 16.923276,9.40727273 16.923276,11.4054545 C16.923276,13.4036364 18.1816421,14.3527273 19.4837014,14.3527273 C20.7857607,14.3527273 22.0406314,13.4018182 22.0406314,11.4054545 L22.0423791,11.4054545 Z" id="Shape"></path>
                            <path d="M29.7638531,13.4254545 C29.8092941,14.2345455 30.3580816,15.0181818 31.5465384,15.0181818 C32.437881,15.0181818 32.8713182,14.52 32.8713182,13.9963636 C32.8713182,13.5672727 32.5969245,13.2109091 31.7527706,13.0218182 L30.4489636,12.7127273 C28.0266089,12.1672727 27.0671047,10.7381818 27.0671047,9.07636364 C27.0671047,6.91272727 28.895231,5.15454545 31.4364314,5.15454545 C34.7274082,5.15454545 35.8704241,7.29272727 35.9805311,8.67272727 L33.100271,9.21818182 C33.009389,8.43454545 32.528763,7.76363636 31.4783769,7.76363636 C30.815987,7.76363636 30.2444791,8.16727273 30.2444791,8.78545455 C30.2444791,9.28545455 30.6324753,9.57090909 31.1358217,9.66545455 L32.6423655,9.97454545 C34.9965587,10.4745455 36.1378269,11.9472727 36.1378269,13.6836364 C36.1378269,15.7036364 34.6522558,17.6836364 31.6129522,17.6836364 C28.0475816,17.6836364 26.9045658,15.2818182 26.8136838,13.9745455 L29.7638531,13.4254545 Z" id="Path"></path>
                            <path d="M42.560737,5.50909091 L44.7768595,5.50909091 L44.7768595,8.67090909 L42.560737,8.67090909 L42.560737,13.0909091 C42.560737,14.0654545 43.0623357,14.3272727 43.8173554,14.3272727 C44.1252952,14.3214476 44.4317419,14.2812167 44.7314185,14.2072727 L44.7314185,17.2054545 C44.5933478,17.2763636 44.0218399,17.5381818 42.9260127,17.5381818 C40.5718195,17.5381818 39.1316895,16.0836364 39.1316895,13.7345455 L39.1316895,8.67090909 L37.1200515,8.67090909 L37.1200515,5.50909091 L37.6915594,5.50909091 C38.8800163,5.50909091 39.4515242,4.67636364 39.4515242,3.58363636 L39.4515242,2.06181818 L42.560737,2.06181818 L42.560737,5.50909091 Z" id="Path"></path>
                            <path d="M105.807614,13.9236364 C105.258827,15.9690909 103.453421,17.6818182 100.574909,17.6818182 C97.4447229,17.6818182 94.6570925,15.3509091 94.6570925,11.38 C94.6570925,7.57636364 97.3765614,5.15272727 100.323235,5.15272727 C103.843165,5.15272727 106.013846,7.41090909 106.013846,11.2145455 C106.017606,11.5879057 105.994823,11.9610442 105.945685,12.3309091 L98.04769,12.3309091 C98.1158515,13.6636364 99.2815879,14.6145455 100.629088,14.6145455 C101.885707,14.6145455 102.595285,13.9963636 102.91512,13.0690909 L105.807614,13.9236364 Z M102.654708,10 C102.609267,9.09090909 102.015039,8 100.368676,8 C98.9075735,8 98.1752744,9.11636364 98.1071129,10 L102.654708,10 Z" id="Shape"></path>
                            <path d="M115.472565,9.07454545 C115.112962,8.99087457 114.745192,8.95121159 114.376738,8.95636364 C112.978553,8.95636364 111.72543,9.81272727 111.72543,12.1654545 L111.72543,17.3236364 L108.250942,17.3236364 L108.250942,5.50545455 L111.611828,5.50545455 L111.611828,7.09818182 C112.206056,5.76727273 113.644438,5.38727273 114.558502,5.38727273 C114.866895,5.38403045 115.174316,5.42377783 115.472565,5.50545455 L115.472565,9.07454545 Z" id="Path"></path>
                            <path d="M121.047825,17.3236364 L117.573337,17.3236364 L117.573337,5.50545455 L120.932475,5.50545455 L120.932475,6.86 C121.551172,5.74181818 122.944113,5.19636364 124.10985,5.19636364 C126.965642,5.19636364 128.246728,7.31272727 128.246728,9.90363636 L128.246728,17.3236364 L124.77224,17.3236364 L124.77224,10.5254545 C124.77224,9.36 124.178011,8.48 122.921393,8.48 C121.778377,8.48 121.047825,9.36 121.047825,10.5490909 L121.047825,17.3236364 Z" id="Path"></path>
                            <path d="M72.8593957,7.81818182 C74.6685809,7.82301175 76.1388948,9.33801898 76.160859,11.22 C76.1883546,12.46032 75.5680138,13.6188624 74.5398254,14.2474269 C73.511637,14.8759913 72.2368659,14.8759913 71.2086775,14.2474269 C70.1804891,13.6188624 69.5601484,12.46032 69.587644,11.22 C69.59531,9.34383209 71.055922,7.82515438 72.8593957,7.81818182 L72.8593957,7.81818182 Z" id="Path"></path>
                            <path d="M92.3500881,15.2090909 L92.3500881,0.118181818 L88.9227882,0.118181818 L88.9227882,6.43636364 C88.6483945,5.98363636 87.8024929,5.22363636 85.8590164,5.22363636 C84.247601,5.19700524 82.7131299,5.93923309 81.6941742,7.23818182 C82.7885648,9.85363854 82.7561287,12.8310179 81.60504,15.42 C82.6541021,16.8158175 84.2714199,17.6193853 85.9743666,17.5909091 C87.3445875,17.5909091 88.4876033,16.9963636 89.0136702,16.1890909 C89.018275,16.5708356 89.0486437,16.9517726 89.1045522,17.3290909 L92.4409701,17.3290909 C92.4182496,17.0636364 92.3500881,16.2781818 92.3500881,15.2090909 Z M86.4078038,14.3527273 C85.0603035,14.3527273 83.8491261,13.3545455 83.8491261,11.4054545 C83.8491261,9.45636364 85.0603035,8.48 86.4078038,8.48 C87.7553042,8.48 88.9682292,9.43090909 88.9682292,11.4054545 C88.9682292,13.38 87.7570519,14.3527273 86.4078038,14.3527273 L86.4078038,14.3527273 Z" id="Shape"></path>
                            <path d="M63.189202,11.2327273 C63.1905546,9.76550583 63.5026401,8.31661507 64.1032651,6.98909091 C63.325525,5.71636364 61.9675383,5.15272727 60.5658583,5.15272727 C59.0348462,5.15272727 57.9442623,5.67454545 57.0476765,7.00545455 C56.4761685,5.84181818 55.3104322,5.15272727 53.6885381,5.15272727 C52.4546403,5.15272727 50.9917897,5.81818182 50.4202818,6.86363636 L50.4202818,5.50909091 L47.0995936,5.50909091 L47.0995936,17.3272727 L50.5793253,17.3272727 L50.5793253,10.5254545 C50.5793253,9.45454545 51.2434629,8.48 52.4546403,8.48 C53.7112586,8.48 54.2810188,9.36 54.2810188,10.48 L54.2810188,17.3236364 L57.7100664,17.3236364 L57.7100664,10.5018182 C57.7100664,9.45454545 58.3724563,8.48 59.6063542,8.48 C60.840252,8.48 61.4117599,9.36 61.4117599,10.48 L61.4117599,17.3236364 L64.7708983,17.3236364 L64.7708983,16.7272727 C63.7392522,15.0957183 63.1893991,13.1856216 63.189202,11.2327273 L63.189202,11.2327273 Z" id="Path"></path>
                        </g>
                    </g>
                </g>
            </g>
        </g>
    </g>
</svg>